# xmcd
#
# Track frame offsets: 
#        150
#        22960
#        40476
#        54345
#        72465
#        88243
#        109034
#        124669
#        135106
#        153398
#        163693
#        185297
#        199146
#
# Disc length: 2720 seconds
#
# Revision: 0
# Processed by: cddbd v1.5.2PL0 Copyright (c) Steve Scherf et al.
# Submitted via: ExactAudioCopy v0.95b4
#
DISCID=aa0a9e0d
DTITLE=EMORY LESTER - CRUISIN' THE 8
DYEAR=2002
DGENRE=BLUEGRASS
TTITLE0=CRUISIN' THE 8
TTITLE1=ECHINACEA
TTITLE2=MOUNTAIN AIR
TTITLE3=SALT CREEK REVISITED
TTITLE4=KINGS QUEST
TTITLE5=IMPRESSIONS
TTITLE6=SO WHAT
TTITLE7=PAUL BARFOOT'S BREAKDOWN
TTITLE8=AUTUMN BLUE
TTITLE9=BILLY IN THE CLAW GROUND
TTITLE10=EMO-TION
TTITLE11=STEEL DRIVER
TTITLE12=TILL THE NEXT TIME
EXTD=
EXTT0=
EXTT1=
EXTT2=
EXTT3=
EXTT4=
EXTT5=
EXTT6=
EXTT7=
EXTT8=
EXTT9=
EXTT10=
EXTT11=
EXTT12=
PLAYORDER=
